<svg version="1.2" xmlns="http://www.w3.org/2000/svg" viewBox="0 0 24 24" width="24" height="24">
	<title>discord_1-svg</title>
	<style>
		.s0 { fill: #ffffff } 
	</style>
	<path id="Layer" fill-rule="evenodd" class="s0" d="m23.9 18c-2 1.5-3.9 2.4-5.8 3q-0.7-1-1.3-2.1 1.1-0.4 2-0.9-0.2-0.2-0.5-0.4c-3.7 1.8-7.8 1.8-11.6 0q-0.3 0.2-0.5 0.4 0.9 0.5 2 0.9-0.6 1.1-1.3 2.1c-1.9-0.6-3.8-1.5-5.8-3-0.4-4.4 0.4-8.9 3.4-13.5q2.2-1.1 4.8-1.5c0.2 0.4 0.4 0.9 0.6 1.3q2.6-0.4 5.2 0c0.2-0.4 0.4-0.9 0.6-1.3q2.5 0.4 4.8 1.5c2.6 3.9 3.9 8.4 3.4 13.5zm-13.2-5.1c0.1-1.3-0.9-2.4-2-2.4-1.2 0-2.1 1.1-2.1 2.4 0 1.3 0.9 2.4 2.1 2.4 1.1 0 2-1.1 2-2.4zm7.7 0c0-1.3-0.9-2.4-2.1-2.4-1.1 0-2 1.1-2 2.4 0 1.3 0.9 2.4 2 2.4 1.2 0 2.1-1.1 2.1-2.4z"/>
</svg>