<svg width="157" height="41" viewBox="0 0 157 41" fill="none" xmlns="http://www.w3.org/2000/svg">
<path d="M0.587999 25.476L3.48 25.476L3.48 27.564L9 27.564L9 30.684L3.48 30.684L3.48 32.724L0.588 32.724L0.587999 25.476ZM6.012 19.8793L6.012 21.5593L9 21.5593L9 24.5953L0.587999 24.5953L0.587999 21.5593L3.564 21.5593L3.564 19.8793L0.587999 19.8793L0.587999 16.8313L9 16.8313L9 19.8793L6.012 19.8793ZM0.587999 8.99475L3.096 8.99475L3.096 12.6667L4.044 12.6667L4.044 8.99475L5.952 8.99475L5.952 12.6667L6.864 12.6667L6.864 8.99475L9 8.99475L9 15.6187L0.587999 15.6187L0.587999 8.99475Z" fill="#FFFEFF"/>
<path d="M33.4981 12.3943V29.5H27.6172L27.9589 22.0818H27.8124L24.9818 29.5H21.6876L18.9301 22.1306H18.8081L19.0766 29.5H13.2201V12.3943H20.9311L23.1761 18.5923H23.3469L25.7871 12.3943H33.4981ZM46.2044 26.8402H41.8853L41.2996 29.5H34.9307L39.3475 12.3943H48.8398L53.3054 29.5H46.8389L46.2044 26.8402ZM45.4236 22.1794L44.0571 17.2746H43.8862L42.6417 22.1794H45.4236ZM71.0052 12.3943V29.5H64.6607L60.732 22.1794H60.5855L60.6343 29.5H54.8511V12.3943H61.9276L65.0511 17.3478H65.1731L65.2219 12.3943H71.0052ZM83.7605 26.8402H79.4414L78.8557 29.5H72.4868L76.9036 12.3943H86.3959L90.8615 29.5H84.3949L83.7605 26.8402ZM82.9796 22.1794L81.6131 17.2746H81.4423L80.1978 22.1794H82.9796ZM101.021 21.0569H106.829V28.2311C104.877 29.2885 102.64 29.8172 100.118 29.8172C97.4177 29.8172 95.4086 29.1584 94.0909 27.8407C92.5292 26.2952 91.7483 23.855 91.7483 20.5201C91.7483 17.1852 92.5454 14.8507 94.1397 13.5167C95.4899 12.3617 97.4584 11.7842 100.045 11.7842C102.078 11.7842 104.25 12.1746 106.56 12.9555V18.4703C105.893 18.2589 105.104 18.088 104.193 17.9579C103.282 17.8115 102.42 17.7383 101.607 17.7383C100.419 17.7383 99.5651 17.9823 99.0445 18.4703C98.4263 19.056 98.1172 20.1297 98.1172 21.6914C98.1172 23.2206 98.3694 24.278 98.8737 24.8636C99.1665 25.189 99.5813 25.3517 100.118 25.3517C100.785 25.3354 101.322 25.2215 101.729 25.01L101.021 21.0569ZM122.224 12.3943V17.4943H114.757V19.422H122.224V23.3019H114.757V25.1565H122.224V29.5H108.755V12.3943H122.224ZM124.578 12.3943H135.949C137.169 12.3943 138.137 12.6627 138.853 13.1995C140.008 14.0455 140.585 15.4038 140.585 17.2746C140.585 19.2919 139.975 20.7397 138.755 21.6182C138.218 22.0249 137.389 22.3014 136.266 22.4478L141.195 29.5H134.07L130.8 23.7656H130.654L130.751 29.5H124.578V12.3943ZM130.751 20.5689H132.142C132.744 20.5689 133.224 20.4876 133.582 20.3249C134.103 20.0809 134.363 19.5603 134.363 18.7632C134.363 17.6407 133.793 17.0794 132.655 17.0794H130.751V20.5689ZM155.648 12.8091V17.8847C155.013 17.7708 154.208 17.6651 153.232 17.5675C152.256 17.4699 151.418 17.4211 150.718 17.4211C149.824 17.4211 149.181 17.5187 148.791 17.7139C148.498 17.844 148.351 18.1043 148.351 18.4947C148.351 19.178 148.848 19.5196 149.84 19.5196H150.572C152.492 19.5196 153.793 19.7392 154.476 20.1785C155.566 20.8129 156.111 22.1388 156.111 24.156C156.111 26.2871 155.55 27.7837 154.427 28.6459C153.386 29.4268 151.751 29.8172 149.523 29.8172C147.684 29.8172 145.423 29.6057 142.739 29.1828V24.888C144.203 25.1483 145.789 25.2785 147.497 25.2785C148.538 25.2785 149.205 25.2053 149.498 25.0589C149.759 24.9124 149.889 24.644 149.889 24.2536C149.889 23.8957 149.775 23.6435 149.547 23.4971C149.352 23.3182 148.953 23.2368 148.351 23.2531C146.66 23.3019 145.439 23.2124 144.691 22.9847C143.666 22.6756 142.942 21.8947 142.519 20.6421C142.259 19.8775 142.129 18.934 142.129 17.8115C142.129 15.3876 142.853 13.7852 144.301 13.0043C145.439 12.3861 147.156 12.077 149.449 12.077C151.272 12.077 153.338 12.3211 155.648 12.8091Z" fill="#FFFEFF"/>
</svg>
