<svg width="19" height="20" viewBox="0 0 19 20" fill="none" xmlns="http://www.w3.org/2000/svg">
<path d="M12.375 10C12.375 10.5933 12.1991 11.1734 11.8694 11.6667C11.5398 12.1601 11.0712 12.5446 10.5231 12.7716C9.97487 12.9987 9.37167 13.0581 8.78973 12.9424C8.20779 12.8266 7.67324 12.5409 7.25368 12.1213C6.83412 11.7018 6.5484 11.1672 6.43264 10.5853C6.31689 10.0033 6.3763 9.40013 6.60336 8.85195C6.83042 8.30377 7.21494 7.83524 7.70829 7.50559C8.20164 7.17595 8.78166 7 9.375 7C10.1699 7.00247 10.9315 7.31934 11.4936 7.88141C12.0557 8.44349 12.3725 9.20511 12.375 10ZM18.75 5.875V14.125C18.75 15.5174 18.1969 16.8527 17.2123 17.8373C16.2277 18.8219 14.8924 19.375 13.5 19.375H5.25C3.85761 19.375 2.52226 18.8219 1.53769 17.8373C0.553123 16.8527 0 15.5174 0 14.125V5.875C0 4.48261 0.553123 3.14726 1.53769 2.16269C2.52226 1.17812 3.85761 0.625 5.25 0.625H13.5C14.8924 0.625 16.2277 1.17812 17.2123 2.16269C18.1969 3.14726 18.75 4.48261 18.75 5.875ZM13.875 10C13.875 9.10998 13.6111 8.23995 13.1166 7.49993C12.6221 6.75991 11.9193 6.18314 11.0971 5.84254C10.2748 5.50195 9.37001 5.41283 8.49709 5.58647C7.62418 5.7601 6.82236 6.18868 6.19302 6.81802C5.56368 7.44736 5.1351 8.24918 4.96147 9.12209C4.78783 9.99501 4.87695 10.8998 5.21754 11.7221C5.55814 12.5443 6.13491 13.2471 6.87493 13.7416C7.61495 14.2361 8.48498 14.5 9.375 14.5C10.5685 14.5 11.7131 14.0259 12.557 13.182C13.4009 12.3381 13.875 11.1935 13.875 10ZM15.375 5.125C15.375 4.9025 15.309 4.68499 15.1854 4.49998C15.0618 4.31498 14.8861 4.17078 14.6805 4.08564C14.475 4.00049 14.2488 3.97821 14.0305 4.02162C13.8123 4.06502 13.6118 4.17217 13.4545 4.3295C13.2972 4.48684 13.19 4.68729 13.1466 4.90552C13.1032 5.12375 13.1255 5.34995 13.2106 5.55552C13.2958 5.76109 13.44 5.93679 13.625 6.0604C13.81 6.18402 14.0275 6.25 14.25 6.25C14.5484 6.25 14.8345 6.13147 15.0455 5.9205C15.2565 5.70952 15.375 5.42337 15.375 5.125Z" fill="#FFFEFF"/>
</svg>
