<svg version="1.2" xmlns="http://www.w3.org/2000/svg" viewBox="0 0 100 100" width="24" height="24">
	<title>opensea-svg</title>
	<style>
		.s0 { fill: #ffffff } 
	</style>
	<path id="Layer" fill-rule="evenodd" class="s0" d="m100 50c0 27.6-22.4 50-50 50-27.6 0-50-22.4-50-50 0-27.6 22.4-50 50-50 27.6 0 50 22.4 50 50zm-17.4 5.5c0-0.3-0.2-0.5-0.5-0.5l-15.2 4.4q-0.2 0.1-0.2 0.2c-1.7 1.8-3.1 3-3.5 3.3-0.9 0.8-2.1 1.2-3.3 1.2h-5.5v-5.6h4.4q0.1 0 0.3-0.1l0.5-0.5c0.3-0.2 0.6-0.5 0.9-0.8q0.3-0.3 0.7-0.7 0.3-0.4 0.6-0.7 0.5-0.6 1-1.2 0.4-0.4 0.7-0.9 0.4-0.4 0.7-0.9 0.3-0.3 0.6-0.7 0.2-0.4 0.4-0.8c0.5-0.6 0.8-1.4 1.1-2.1q0.3-0.5 0.4-1 0.2-0.6 0.3-1.1 0.3-1.3 0.2-2.6 0-0.4-0.1-0.7v-0.1q0-0.3-0.1-0.5-0.3-1.3-0.9-2.5-0.2-0.5-0.4-0.9-0.5-0.9-1-1.8c-0.2-0.2-0.3-0.5-0.5-0.7q-0.5-0.7-1-1.3c-0.2-0.4-0.5-0.7-0.7-1q-0.5-0.5-0.9-0.9c-0.9-1.1-1.9-2.1-2.8-2.9q-0.3-0.3-0.5-0.5c-0.7-0.7-1.4-1.2-1.9-1.6q-0.4-0.4-0.7-0.6-0.4-0.3-0.6-0.5-0.1 0-0.1 0l-0.6-0.2v-4.8c0-0.8-0.3-1.5-0.8-2.1-0.5-0.5-1.3-0.8-2-0.8-1.6 0-2.9 1.3-2.9 2.9v3.2l-0.3-0.1-0.8-0.2-0.7-0.2q0 0 0 0l-5.5-1.5c-0.3 0-0.5 0.2-0.3 0.4l0.8 1.7q0.2 0.3 0.3 0.6 0.3 0.4 0.5 0.9 0.2 0.4 0.4 0.8 0.4 0.9 0.9 2 0.3 0.8 0.5 1.5 0.8 2 1.4 4.1c0.2 0.4 0.3 0.8 0.4 1.3v0.2q0.3 1 0.5 2 0.1 0.6 0.2 1.3 0.1 0.7 0.1 1.5 0.1 0.6 0.1 1.3 0 1.7-0.4 3.3-0.1 0.5-0.3 0.9-0.1 0.6-0.3 1.1-0.2 0.4-0.3 0.7c-0.5 1.2-1.1 2.5-1.8 3.6-1 1.7-1.9 3.2-2.6 4.1q-0.1 0.2-0.2 0.4c-0.3 0.3 0 0.7 0.3 0.7h7.1v5.6h-7.2c-1.9 0-3.7-1.1-4.5-2.8-0.5-0.9-0.7-1.8-0.5-2.8 0-0.3-0.2-0.5-0.5-0.5h-14.6c-0.2 0-0.4 0.2-0.4 0.4v0.3c0 9.3 7.5 16.8 16.7 16.8h26.1c6.2 0 9-7.3 12.7-12.4 1.4-2 4.9-3.6 5.9-4 0.1-0.1 0.2-0.2 0.2-0.4zm-57.6-3.1h13.4q0.3 0 0.4-0.2 0.3-0.4 0.5-0.8c1.1-2 2.2-4.1 2.5-5.6 0.9-3.8-1-9.9-3.1-14.7-0.2-0.4-0.6-0.4-0.8-0.1l-13 20.4-0.2 0.3c-0.2 0.3 0 0.7 0.3 0.7z"/>
</svg>