<svg width="18" height="18" viewBox="0 0 18 18" fill="none" xmlns="http://www.w3.org/2000/svg">
<path d="M15.8571 0H2.14286C0.961286 0 0 0.961286 0 2.14286V15.8571C0 17.0387 0.961286 18 2.14286 18H15.8571C17.0387 18 18 17.0387 18 15.8571V2.14286C18 0.961286 17.0387 0 15.8571 0ZM14.1454 7.85271C14.0471 7.86227 13.9485 7.86727 13.8497 7.86771C13.3165 7.86779 12.7917 7.73509 12.3227 7.48159C11.8536 7.22809 11.4551 6.86178 11.163 6.41571V11.3601C11.163 12.0829 10.9487 12.7895 10.5471 13.3904C10.1456 13.9914 9.57482 14.4598 8.90706 14.7364C8.2393 15.013 7.50452 15.0854 6.79563 14.9444C6.08674 14.8033 5.43558 14.4553 4.9245 13.9442C4.41342 13.4331 4.06537 12.782 3.92436 12.0731C3.78335 11.3642 3.85572 10.6294 4.13232 9.96165C4.40892 9.29389 4.87731 8.72315 5.47828 8.3216C6.07925 7.92004 6.78579 7.70571 7.50857 7.70571C7.58486 7.70571 7.65943 7.71257 7.73443 7.71729V9.51814C7.65943 9.50914 7.58571 9.49543 7.50857 9.49543C7.01391 9.49543 6.5395 9.69193 6.18972 10.0417C5.83993 10.3915 5.64343 10.8659 5.64343 11.3606C5.64343 11.8552 5.83993 12.3296 6.18972 12.6794C6.5395 13.0292 7.01391 13.2257 7.50857 13.2257C8.53886 13.2257 9.44872 12.414 9.44872 11.3837L9.46671 2.98629H11.1896C11.2683 3.73487 11.6076 4.43196 12.1483 4.95568C12.6889 5.47939 13.3964 5.79641 14.1471 5.85129V7.85271" fill="#111112"/>
</svg>
